<svg id="SvgjsSvg1001" width="288" height="288" xmlns="http://www.w3.org/2000/svg" version="1.1" xmlns:xlink="http://www.w3.org/1999/xlink" xmlns:svgjs="http://svgjs.com/svgjs"><circle id="SvgjsCircle1024" r="144" cx="144" cy="144" transform="matrix(0.7916,0,0,0.7916,30.009600000000006,30.009600000000006)" fill="#ff8066"></circle><defs id="SvgjsDefs1002"></defs><g id="SvgjsG1008" transform="matrix(0.61,0,0,0.61,56.16,56.16)"><svg xmlns="http://www.w3.org/2000/svg" width="288" height="288" viewBox="0 0 36 36"><g transform="translate(718 -1194.362)" fill="#ff8066" class="color000 svgShape"><rect width="36" height="36" x="-718" y="1194.362" fill="#ff8066" rx="6" ry="6" class="colorf05542 svgShape"></rect><g transform="translate(-715.5 176)" fill="#ff8066" class="color000 svgShape"><path d="m 15,1024.8621 a 10.499991,10.499991 0 0 0 -10.5,10.5 10.499991,10.499991 0 0 0 4.601562,8.6855 c -0.167024,0.6247 -0.440306,1.2309 -0.839843,1.7872 -0.631914,0.8784 -1.309985,1.5512 -2.322266,1.9336 1.917623,0.3764 5.37961,-0.3985 6.521485,-1.9844 0.04949,-0.069 0.09123,-0.1405 0.136718,-0.211 A 10.499991,10.499991 0 0 0 15,1045.8621 a 10.499991,10.499991 0 0 0 10.5,-10.5 10.499991,10.499991 0 0 0 -10.5,-10.5 z" opacity=".15" fill="#ff8066" class="color000 svgShape"></path><path fill="#ffffff" d="m 16,1024.8621 a 10.499991,10.499991 0 0 0 -10.5,10.5 10.499991,10.499991 0 0 0 4.601562,8.6855 c -0.167024,0.6247 -0.440306,1.2309 -0.839843,1.7872 -0.631914,0.8784 -1.309985,1.5512 -2.322266,1.9336 1.917623,0.3764 5.37961,-0.3985 6.521485,-1.9844 0.04949,-0.069 0.09123,-0.1405 0.136718,-0.211 A 10.499991,10.499991 0 0 0 16,1045.8621 a 10.499991,10.499991 0 0 0 10.5,-10.5 10.499991,10.499991 0 0 0 -10.5,-10.5 z" class="color4bbfeb svgShape"></path><path style="line-height:125%;-inkscape-font-specification:Montserrat" d="m 15,1030.0522 c -0.57,0 -1.005,0.435 -1.005,1.05 0,0.6 0.435,1.035 1.005,1.035 0.57,0 1.005,-0.435 1.005,-1.035 0,-0.615 -0.435,-1.05 -1.005,-1.05 z m 1,11.31 0,-7.98 -2,0 0,7.98 z" font-family="Montserrat" font-weight="400" letter-spacing="0" opacity=".15" word-spacing="0" fill="#ff8066" class="color000 svgShape"></path><path style="line-height:125%;-inkscape-font-specification:Montserrat" fill="#000000" d="m 16,1030.0522 c -0.57,0 -1.005,0.435 -1.005,1.05 0,0.6 0.435,1.035 1.005,1.035 0.57,0 1.005,-0.435 1.005,-1.035 0,-0.615 -0.435,-1.05 -1.005,-1.05 z m 1,11.31 0,-7.98 -2,0 0,7.98 z" font-family="Montserrat" font-weight="400" letter-spacing="0" word-spacing="0" class="color2b4255 svgShape"></path></g></g></svg></g></svg>